<svg xmlns="http://www.w3.org/2000/svg" viewBox="0 0 61.05 25.67"><defs><style>.cls-1{fill:#d2d4d6}</style></defs><g id="Layer_2" data-name="Layer 2"><g id="Слой_1" data-name="Слой 1"><path class="cls-1" d="M50.74 24.86H11.17a10.31 10.31 0 1 1 0-20.61h39.57a10.31 10.31 0 1 1 0 20.61M11.17 5.06a9.5 9.5 0 1 0 0 19h39.57a9.5 9.5 0 1 0 0-19z"/><path class="cls-1" d="M23.9 20.7l.36-.56a2.21 2.21 0 0 0 1.28.42c.52 0 .84-.24.84-.65s-.41-.6-1.08-.84-1.19-.51-1.19-1.37.63-1.23 1.48-1.23a2.46 2.46 0 0 1 1.31.31l-.29.6a2.12 2.12 0 0 0-1-.25c-.47 0-.76.18-.76.55s.33.56.95.76 1.36.51 1.36 1.45-.58 1.33-1.6 1.33a2.64 2.64 0 0 1-1.65-.52m4.62.46h2.87v-.64h-2.1v-1.46h1.56v-.62H29.3v-1.26h2v-.64h-2.78zm4-2.31c0 1.36.62 2.37 2 2.37a1.73 1.73 0 0 0 1.42-.66l-.53-.56a1.28 1.28 0 0 1-1 .49q-1.11 0-1.11-1.62c0-1.14.35-1.76 1.11-1.76a1.14 1.14 0 0 1 .88.4l.5-.51a1.71 1.71 0 0 0-1.36-.55c-1.29 0-1.93 1-1.93 2.38m4.64.54c0 1.15.44 1.83 1.61 1.83s1.64-.68 1.64-1.83v-2.83h-.8v3c0 .63-.16 1.05-.83 1.05s-.83-.42-.83-1.05v-3h-.79v2.85m7.11-.3a1.2 1.2 0 0 0 .87-1.2c0-1-.73-1.35-1.66-1.35H42v4.62h.79v-2h.73l.88 2h.86zm-1.51-.49v-1.42h.74c.53 0 .84.18.84.69s-.3.73-.89.73zm3.81 2.56h2.86v-.64h-2.08v-1.46h1.55v-.62h-1.55v-1.26h2v-.64h-2.78zm4.18 0h1.2c1.45 0 2.19-.82 2.19-2.33a2 2 0 0 0-2.23-2.29h-1.16zm.79-.64v-3.34H52c1.06 0 1.35.61 1.35 1.65 0 1.19-.37 1.69-1.45 1.69z"/><path d="M11.12 25.67a11.12 11.12 0 1 1 11.11-11.11 11.13 11.13 0 0 1-11.11 11.11m0-18.67a7.6 7.6 0 1 0 5.37 2.22A7.59 7.59 0 0 0 11.12 7m13-5.23h-.86v.86h.86zm0-1.73h-.86v.83h.86zM21.6 2.59h-.81v.84h.81z" fill="#ffc10e"/><path d="M46 8.79a2.79 2.79 0 1 0 2.79 2.78A2.79 2.79 0 0 0 46 8.79zM46 13a1.43 1.43 0 1 1 1.43-1.43A1.43 1.43 0 0 1 46 13zM33.23 8.79A2.79 2.79 0 1 0 36 11.57a2.79 2.79 0 0 0-2.77-2.78zm0 4.21a1.43 1.43 0 1 1 1.43-1.43A1.43 1.43 0 0 1 33.23 13zm9.8.08l.19 1.08a3.54 3.54 0 0 1-1.2.2c-1 0-1.68-.47-1.68-1.72V10h-.86c-.82 0-1.51.77-1.51 1.94v2.33H36.4V8.92h.92l.44 1.14a1.83 1.83 0 0 1 1.63-1.14h1l.27-1.52h1.28v1.52H43V10h-1.09v2.57c0 .46.1.62.58.62a2.74 2.74 0 0 0 .51-.11zm11-2.34v3.52h-1.58v-3.47a.73.73 0 0 0-.8-.71 1.29 1.29 0 0 0-1 .52l-.08-.23.08.24v3.65h-1.5V8.92h.93l.31.81a2.47 2.47 0 0 1 1.83-.94A1.79 1.79 0 0 1 54 10.74zM28.48 7h1.45v7.28h-1.59l-2.56-5v5h-1.45V7h1.75l2.4 4.58zM20 5.06h-.82v-.81H20zm2.51-.81h-.91v-.82h.91zm-4.14-.78h.81v.78h-.81zm3.23 1.59h-.81v-.81h.81zm1.63-3.33h-.86V.87h.86zm-.86.86h-1.58v-.86h1.58zm-2.37 0h.79v1.66H20zm.79 2.47v1.72h-.7v.68h-.73v1h-.64v.82h-.8v-.84h-.83v.83h.83v.91h-.82v.94h-.68v.82h-.64v.9a27.13 27.13 0 0 0-2.95 5.77c-.33.89-2 .76-2.35-.12a18.53 18.53 0 0 0-3.72-6.28c-1-1-.27-1.69.33-1.51 1.12.37 2.53 1.37 4.36 3.91a45.68 45.68 0 0 1 2.84-5.35h.6v-.81h.54v-.81h.81V6.37h.86v.81h.81v-.81h-.81v-.72h.73v-.59h1.35v.82H20v-.82z" fill="#fff"/></g></g></svg>