<svg xmlns="http://www.w3.org/2000/svg" viewBox="0 0 59.54 21.93"><defs><style>.cls-1{fill:#fff}.cls-3{fill:#c80a1e}.cls-5{mask:url(#mask-2-2)}</style><mask id="mask" x=".01" y="0" width="59.45" height="21.92" maskUnits="userSpaceOnUse"><g id="mask-2"><path id="path-1" class="cls-1" d="M.01 0h59.45v21.92H.01V0z"/></g></mask><mask id="mask-2-2" x=".01" y="0" width="59.45" height="21.93" maskUnits="userSpaceOnUse"><g id="mask-2-3" data-name="mask-2"><path id="path-1-2" data-name="path-1" class="cls-1" d="M.01 0h59.45v21.92H.01V0z"/></g></mask></defs><g style="isolation:isolate"><g id="Layer_2" data-name="Layer 2"><g id="Слой_1" data-name="Слой 1"><g id="logo_mcafee-secure-trustmark" data-name="logo/mcafee-secure-trustmark"><g id="mcafee-secure-s-rgb"><path id="Fill-1" class="cls-3" d="M35.93 7l-1.3-.78-.1.15a1.38 1.38 0 0 1-1.21.71 1.48 1.48 0 0 1-1.51-1.52A1.48 1.48 0 0 1 33.33 4a1.35 1.35 0 0 1 1.2.71l.1.15 1.31-.78-.11-.16a2.86 2.86 0 0 0-2.5-1.36 3 3 0 1 0 2.5 4.56l.1-.16"/><path id="Fill-2" class="cls-3" d="M39.57 3.74l.73 1.84h-1.47zm-3.7 4.75h1.8l.54-1.34h2.7l.54 1.34h1.81L40 .65h-1.58l.43 1z"/><path id="Fill-3" class="cls-3" d="M44 8.49h1.59V5h1V3.5h-1v-.7a.59.59 0 0 1 .57-.62 1.12 1.12 0 0 1 .45.09l.17.08.66-1.45-.19-.07a2.65 2.65 0 0 0-1-.17 2.23 2.23 0 0 0-1.71.68A2.27 2.27 0 0 0 44 2.87v.63h-.7V5h.7v3.49"/><path id="Fill-4" class="cls-3" d="M22.79.6v7.88h1.72v-4.5l1.67 1.24 1.67-1.24v4.5l1.71.01.01-7.89-3.39 2.57L22.79.6"/><path id="Fill-5" class="cls-3" d="M48.8 4.82A1.26 1.26 0 0 1 50 4a1.35 1.35 0 0 1 1.28.85zm1.38-2.22a3 3 0 1 0 0 5.9 3.28 3.28 0 0 0 2.43-1.18l-1.29-.71a1.6 1.6 0 0 1-1.17.52 1.43 1.43 0 0 1-1.38-1h4.3v-.4a3 3 0 0 0-2.89-3.13z"/><path id="Fill-6" class="cls-3" d="M55.27 4.82A1.27 1.27 0 0 1 56.5 4a1.36 1.36 0 0 1 1.28.85zm1.38-2.22a3 3 0 1 0 0 5.9 3.28 3.28 0 0 0 2.43-1.18l-1.29-.71a1.61 1.61 0 0 1-1.18.52 1.41 1.41 0 0 1-1.37-1h4.3v-.39a3 3 0 0 0-2.89-3.14z"/><path id="Fill-9" class="cls-1" d="M27.68 16.26a1.93 1.93 0 0 1-.73 1.6 3.12 3.12 0 0 1-2 .58 4.7 4.7 0 0 1-2.1-.45v-1.47a8.67 8.67 0 0 0 1.25.48 3.48 3.48 0 0 0 1 .14 1.28 1.28 0 0 0 .79-.2.67.67 0 0 0 .28-.59A.65.65 0 0 0 26 16a1.3 1.3 0 0 0-.36-.33 9.8 9.8 0 0 0-1-.51 4.45 4.45 0 0 1-1-.62 2 2 0 0 1-.54-.69 1.89 1.89 0 0 1-.21-.92 2 2 0 0 1 .67-1.56 2.84 2.84 0 0 1 1.85-.56 4 4 0 0 1 1.11.14 8 8 0 0 1 1.1.38l-.51 1.24a7.07 7.07 0 0 0-1-.35 3.44 3.44 0 0 0-.77-.09 1 1 0 0 0-.69.21.68.68 0 0 0-.23.54.75.75 0 0 0 .09.37 1.27 1.27 0 0 0 .31.3 8.36 8.36 0 0 0 1 .52 4 4 0 0 1 1.43 1 2 2 0 0 1 .39 1.23"/><path id="Fill-10" class="cls-1" d="M33.17 18.34h-4.28v-7.48h4.28v1.3h-2.71v1.64h2.52v1.3h-2.52v1.93h2.71v1.31"/><path id="Fill-11" class="cls-1" d="M37.6 12.08a1.61 1.61 0 0 0-1.38.67 3.17 3.17 0 0 0-.48 1.87c0 1.67.62 2.5 1.86 2.5a5.88 5.88 0 0 0 1.9-.39v1.33a5.33 5.33 0 0 1-2 .38 3.12 3.12 0 0 1-2.49-1 4.21 4.21 0 0 1-.86-2.84 4.68 4.68 0 0 1 .42-2 3.14 3.14 0 0 1 1.22-1.35 3.58 3.58 0 0 1 1.85-.46 5 5 0 0 1 2.18.52l-.51 1.29c-.28-.13-.56-.25-.84-.35a2.73 2.73 0 0 0-.83-.14"/><path id="Fill-12" class="cls-1" d="M46.91 10.86v4.84a2.84 2.84 0 0 1-.37 1.45 2.38 2.38 0 0 1-1.07 1 3.79 3.79 0 0 1-1.65.33 3.13 3.13 0 0 1-2.23-.74 2.61 2.61 0 0 1-.79-2v-4.88h1.57v4.58a1.93 1.93 0 0 0 .35 1.27 1.81 1.81 0 0 0 2.27 0 2 2 0 0 0 .34-1.28v-4.57h1.58"/><path id="Fill-13" class="cls-1" d="M50 14.18h.51a1.88 1.88 0 0 0 1.1-.25.89.89 0 0 0 .36-.79.82.82 0 0 0-.36-.75 2.22 2.22 0 0 0-1.13-.23H50zm0 1.29v2.87h-1.59v-7.48h2.17a3.73 3.73 0 0 1 2.25.56 2 2 0 0 1 .72 1.68 2 2 0 0 1-.36 1.18 2.36 2.36 0 0 1-1 .8c1.12 1.68 1.85 2.77 2.19 3.26h-1.77l-1.78-2.87z"/><g id="Group-18"><path class="cls-3" d="M9.49 4.41L0 0v17.52l9.49 4.41L19 17.52V0zM15.09 15l-5.6 2.6-5.6-2.6V6.11l5.6 2.6 5.6-2.6z"/><g mask="url(#mask)"><path id="Fill-14" class="cls-1" d="M59.46 18.34h-4.29v-7.48h4.29v1.3h-2.71v1.64h2.52v1.3h-2.52v1.93h2.71v1.31"/></g><g class="cls-5"><path id="Fill-17" class="cls-3" d="M15.09 15.03V6.11l-5.6 2.6v-4.3L18.98 0v17.52l-9.49 4.41v-4.3l5.6-2.6"/></g><g class="cls-5"><path id="Fill-17-2" data-name="Fill-17" style="mix-blend-mode:multiply" opacity=".44" d="M15.09 15.03V6.11l-5.6 2.6v-4.3L18.98 0v17.52l-9.49 4.41v-4.3l5.6-2.6"/></g></g></g></g></g></g></g></svg>