<svg xmlns="http://www.w3.org/2000/svg" viewBox="0 0 77.29 21.93"><defs><style>.cls-1{fill:#d2d4d6;}.cls-2{fill:#090;}.cls-3{fill:#fff;}.cls-4{fill:#fefefe;}</style></defs><title>Asset 3</title><g id="Layer_2" data-name="Layer 2"><g id="Слой_1" data-name="Слой 1"><path class="cls-1" d="M22.36,3.21a3.11,3.11,0,0,1-.71,2.16,2.51,2.51,0,0,1-2,.79,2.54,2.54,0,0,1-2-.78A3.1,3.1,0,0,1,17,3.21,3.11,3.11,0,0,1,17.7,1a2.56,2.56,0,0,1,2-.76,2.5,2.5,0,0,1,2,.78A3,3,0,0,1,22.36,3.21Zm-4.64,0A2.7,2.7,0,0,0,18.22,5a1.82,1.82,0,0,0,1.47.6A1.78,1.78,0,0,0,21.15,5a2.73,2.73,0,0,0,.49-1.77,2.65,2.65,0,0,0-.49-1.74,1.77,1.77,0,0,0-1.46-.6,1.82,1.82,0,0,0-1.47.6A2.67,2.67,0,0,0,17.72,3.21Zm7.87,3A2,2,0,0,1,24.81,6a1.49,1.49,0,0,1-.59-.47h0a4.39,4.39,0,0,1,0,.71V8h-.66V1.8h.54l.09.58h0a1.49,1.49,0,0,1,.6-.5,1.71,1.71,0,0,1,.77-.16,1.61,1.61,0,0,1,1.34.58,2.49,2.49,0,0,1,.48,1.63,2.51,2.51,0,0,1-.48,1.64A1.65,1.65,0,0,1,25.59,6.16ZM25.5,2.27a1.19,1.19,0,0,0-1,.36,1.89,1.89,0,0,0-.31,1.16v.14a2,2,0,0,0,.31,1.29,1.16,1.16,0,0,0,1,.39,1,1,0,0,0,.89-.45,2.11,2.11,0,0,0,.32-1.23A2,2,0,0,0,26.4,2.7,1.05,1.05,0,0,0,25.5,2.27Zm4.91,3.89a2,2,0,0,1-1.53-.58A2.24,2.24,0,0,1,28.32,4a2.41,2.41,0,0,1,.52-1.64,1.74,1.74,0,0,1,1.4-.61,1.65,1.65,0,0,1,1.29.53A2,2,0,0,1,32,3.64v.41H29a1.74,1.74,0,0,0,.39,1.15,1.36,1.36,0,0,0,1,.39,3.66,3.66,0,0,0,1.4-.29v.58a3.4,3.4,0,0,1-.67.21A4,4,0,0,1,30.41,6.16Zm-.18-3.9a1.08,1.08,0,0,0-.84.34,1.52,1.52,0,0,0-.37.93H31.3A1.39,1.39,0,0,0,31,2.59,1,1,0,0,0,30.23,2.26Zm4.9-.54a2.17,2.17,0,0,1,.53.05l-.1.6a2.23,2.23,0,0,0-.47-.06,1.17,1.17,0,0,0-.91.42,1.52,1.52,0,0,0-.38,1v2.3h-.66V1.8h.55l.07.79h0A1.93,1.93,0,0,1,34.38,2,1.28,1.28,0,0,1,35.13,1.72Zm4,4.36L39,5.47h0a1.75,1.75,0,0,1-.66.54,1.89,1.89,0,0,1-.81.15,1.49,1.49,0,0,1-1-.33,1.21,1.21,0,0,1-.36-.94c0-.86.7-1.31,2.11-1.35l.74,0V3.25a1.07,1.07,0,0,0-.22-.75.92.92,0,0,0-.71-.24,2.91,2.91,0,0,0-1.23.33l-.2-.5a3.64,3.64,0,0,1,.7-.27,3.44,3.44,0,0,1,.77-.09,1.66,1.66,0,0,1,1.16.34,1.4,1.4,0,0,1,.38,1.09V6.08Zm-1.5-.46a1.34,1.34,0,0,0,1-.33A1.2,1.2,0,0,0,39,4.36V4l-.66,0a2.48,2.48,0,0,0-1.14.24.72.72,0,0,0-.35.66.65.65,0,0,0,.22.54A.9.9,0,0,0,37.66,5.62Zm4.76,0,.34,0L43,5.54V6a1.33,1.33,0,0,1-.32.08,1.73,1.73,0,0,1-.37,0,1.14,1.14,0,0,1-1.27-1.31V2.3h-.63V2l.63-.27L41.34.8h.38v1H43v.5H41.72V4.82a.81.81,0,0,0,.19.59A.65.65,0,0,0,42.42,5.62Zm3.32.54a2,2,0,0,1-1.53-.58A2.24,2.24,0,0,1,43.65,4a2.41,2.41,0,0,1,.52-1.64,1.74,1.74,0,0,1,1.4-.61,1.69,1.69,0,0,1,1.3.53,2,2,0,0,1,.47,1.39v.41h-3a1.69,1.69,0,0,0,.38,1.15,1.38,1.38,0,0,0,1,.39,3.66,3.66,0,0,0,1.4-.29v.58a3.4,3.4,0,0,1-.67.21A3.91,3.91,0,0,1,45.74,6.16Zm-.18-3.9a1.08,1.08,0,0,0-.84.34,1.52,1.52,0,0,0-.37.93h2.29a1.44,1.44,0,0,0-.28-.94A1,1,0,0,0,45.56,2.26ZM51.45,5.5h0A1.56,1.56,0,0,1,50,6.16a1.63,1.63,0,0,1-1.33-.58A2.48,2.48,0,0,1,48.23,4a2.55,2.55,0,0,1,.48-1.65A1.62,1.62,0,0,1,50,1.72a1.59,1.59,0,0,1,1.36.63h.05l0-.31,0-.3V0h.66V6.08h-.54Zm-1.33.11a1.25,1.25,0,0,0,1-.36,1.81,1.81,0,0,0,.3-1.16V4a2.09,2.09,0,0,0-.31-1.3,1.17,1.17,0,0,0-1-.39,1,1,0,0,0-.89.45A2.2,2.2,0,0,0,48.92,4a2.14,2.14,0,0,0,.3,1.24A1.08,1.08,0,0,0,50.12,5.61Zm7.51-3.88A1.63,1.63,0,0,1,59,2.3a2.49,2.49,0,0,1,.48,1.63A2.51,2.51,0,0,1,59,5.57a1.63,1.63,0,0,1-1.33.59A1.94,1.94,0,0,1,56.85,6a1.42,1.42,0,0,1-.59-.47h0l-.14.55h-.48V0h.67V1.48a8.09,8.09,0,0,1,0,.89h0A1.56,1.56,0,0,1,57.63,1.73Zm-.1.54a1.15,1.15,0,0,0-1,.38,2.09,2.09,0,0,0-.3,1.28,2.11,2.11,0,0,0,.3,1.29,1.2,1.2,0,0,0,1,.39,1,1,0,0,0,.91-.43,2.2,2.2,0,0,0,.3-1.25,2.11,2.11,0,0,0-.3-1.25A1.08,1.08,0,0,0,57.53,2.27ZM59.9,1.8h.71l1,2.44A9,9,0,0,1,62,5.45h0c0-.14.11-.36.22-.69s.47-1.31,1.08-3H64L62.12,6.67a2.37,2.37,0,0,1-.65,1,1.4,1.4,0,0,1-.91.3,2.4,2.4,0,0,1-.6-.07V7.41a1.85,1.85,0,0,0,.49,0,1,1,0,0,0,1-.75l.24-.61Z"/><path class="cls-2" d="M75.49,16a1.13,1.13,0,0,0-1.1-1.27A1.29,1.29,0,0,0,73.19,16Zm-2.28,1.32c.06.8.85,1.19,1.76,1.19a5.36,5.36,0,0,0,1.72-.26l.25,1.31a6,6,0,0,1-2.25.39,3,3,0,0,1-3.33-3.18,3.12,3.12,0,0,1,3.15-3.32c2,0,2.78,1.57,2.78,3.11a5.37,5.37,0,0,1-.06.76Zm-3.54-5.52v1.79h1.39v1.43H69.67v2.25c0,.75.18,1.1.77,1.1a2.68,2.68,0,0,0,.57-.06v1.47a3.79,3.79,0,0,1-1.26.17,2,2,0,0,1-1.45-.54,2.57,2.57,0,0,1-.54-1.85V15.06h-.83V13.63h.83V12.28Zm-5.48,8h1.94V13.63H64.19Zm2-8a1,1,0,0,1-1,1,1,1,0,1,1,0-1.95A1,1,0,0,1,66.19,11.9Zm-8.45,6a5,5,0,0,0,2.16.53c.89,0,1.36-.37,1.36-.93s-.4-.84-1.44-1.21c-1.43-.49-2.36-1.28-2.36-2.53,0-1.47,1.23-2.59,3.26-2.59a5.24,5.24,0,0,1,2.19.43l-.43,1.57a4.2,4.2,0,0,0-1.8-.41c-.84,0-1.25.39-1.25.83s.48.79,1.59,1.21c1.52.56,2.23,1.35,2.23,2.56,0,1.44-1.11,2.67-3.47,2.67a5.55,5.55,0,0,1-2.43-.53Z"/><path class="cls-3" d="M54.2,16.27c0-.11,0-.25,0-.35A1.16,1.16,0,0,0,53,15c-.88,0-1.33.79-1.33,1.77s.52,1.72,1.32,1.72a1.14,1.14,0,0,0,1.12-.93,1.58,1.58,0,0,0,.06-.45Zm1.94-5.46V18c0,.7,0,1.44,0,1.86H54.46l-.09-.92h0a2.19,2.19,0,0,1-2,1.06c-1.48,0-2.67-1.26-2.67-3.2,0-2.1,1.3-3.31,2.79-3.31a1.91,1.91,0,0,1,1.65.7h0V10.81ZM47.46,16a1.13,1.13,0,0,0-1.1-1.27A1.28,1.28,0,0,0,45.16,16Zm-2.28,1.32c.06.8.85,1.19,1.76,1.19a5.36,5.36,0,0,0,1.72-.26l.25,1.31a6,6,0,0,1-2.25.39,3,3,0,0,1-3.33-3.18,3.12,3.12,0,0,1,3.15-3.32c2,0,2.78,1.57,2.78,3.11a4,4,0,0,1-.07.76Zm-3.51-5.52v1.79h1.39v1.43H41.67v2.25c0,.75.18,1.1.76,1.1a2.79,2.79,0,0,0,.58-.06v1.47a3.88,3.88,0,0,1-1.26.17,2,2,0,0,1-1.46-.54,2.57,2.57,0,0,1-.53-1.85V15.06h-.83V13.63h.83V12.28Zm-7.54,6.32a3.69,3.69,0,0,0,1.67.48c.58,0,.83-.21.83-.53s-.19-.47-.92-.71c-1.29-.43-1.79-1.13-1.78-1.87,0-1.16,1-2,2.54-2a4.2,4.2,0,0,1,1.76.35l-.34,1.34a3.12,3.12,0,0,0-1.35-.35c-.47,0-.74.19-.74.51s.24.44,1,.71c1.18.41,1.68,1,1.69,1.92,0,1.16-.92,2-2.7,2a4.35,4.35,0,0,1-2-.44Zm-1.08-.3c0,.81,0,1.48.06,2H31.42L31.33,19h0a2.23,2.23,0,0,1-1.95,1c-1.26,0-2.19-.79-2.19-2.72V13.63h2V17c0,.9.29,1.45,1,1.45a1.06,1.06,0,0,0,1-.67,1.12,1.12,0,0,0,.06-.42V13.63h1.95ZM22.49,15.68c0-.92,0-1.52,0-2h1.67l.06,1.14h.06a1.82,1.82,0,0,1,1.68-1.28,2.55,2.55,0,0,1,.41,0v1.83a2.42,2.42,0,0,0-.53-.06,1.25,1.25,0,0,0-1.32,1,1.91,1.91,0,0,0,0,.43v3.16H22.49Z"/><polygon class="cls-3" points="18.27 12.9 15.96 12.9 15.96 11.27 22.57 11.27 22.57 12.9 20.22 12.9 20.22 19.86 18.27 19.86 18.27 12.9"/><path class="cls-2" d="M9.68,21.93H0V12.41A3.44,3.44,0,0,1,3.47,9h9.67v9.52a3.44,3.44,0,0,1-3.46,3.41"/><path class="cls-4" d="M10.45,11.65a.29.29,0,0,0-.39,0L5.19,16.52a.27.27,0,0,1-.39,0L3,14.75a.27.27,0,0,0-.39,0L1.46,15.92a.27.27,0,0,0,0,.39L4.8,19.64a.27.27,0,0,0,.39,0l6.44-6.43a.29.29,0,0,0,0-.39Z"/></g></g></svg>