<svg xmlns="http://www.w3.org/2000/svg" xmlns:xlink="http://www.w3.org/1999/xlink" viewBox="0 0 59.54 21.93"><defs><style>.cls-1{fill:#fff;}.cls-2{isolation:isolate;}.cls-3{fill:#c80a1e;}.cls-4{mask:url(#mask);}.cls-5{mask:url(#mask-2-2);}.cls-6{opacity:0.44;mix-blend-mode:multiply;}</style><mask id="mask" x="0.01" y="0" width="59.45" height="21.92" maskUnits="userSpaceOnUse"><g id="mask-2"><polygon id="path-1" class="cls-1" points="0.01 0 59.46 0 59.46 21.92 0.01 21.92 0.01 0"/></g></mask><mask id="mask-2-2" x="0.01" y="0" width="59.45" height="21.93" maskUnits="userSpaceOnUse"><g id="mask-2-3" data-name="mask-2"><polygon id="path-1-2" data-name="path-1" class="cls-1" points="0.01 0 59.46 0 59.46 21.92 0.01 21.92 0.01 0"/></g></mask></defs><title>Asset 2</title><g class="cls-2"><g id="Layer_2" data-name="Layer 2"><g id="Слой_1" data-name="Слой 1"><g id="logo_mcafee-secure-trustmark" data-name="logo/mcafee-secure-trustmark"><g id="mcafee-secure-s-rgb"><path id="Fill-1" class="cls-3" d="M35.93,7l-1.3-.78-.1.15a1.38,1.38,0,0,1-1.21.71,1.48,1.48,0,0,1-1.51-1.52A1.48,1.48,0,0,1,33.33,4a1.35,1.35,0,0,1,1.2.71l.1.15,1.31-.78-.11-.16a2.86,2.86,0,0,0-2.5-1.36,3,3,0,1,0,2.5,4.56l.1-.16"/><path id="Fill-2" class="cls-3" d="M39.57,3.74l.73,1.84H38.83Zm-3.7,4.75h1.8l.54-1.34h2.7l.54,1.34h1.81L40,.65H38.42l.43,1Z"/><path id="Fill-3" class="cls-3" d="M44,8.49h1.59V5h1V3.5h-1V2.8a.59.59,0,0,1,.57-.62,1.12,1.12,0,0,1,.45.09l.17.08L47.44.9,47.25.83a2.65,2.65,0,0,0-1-.17,2.23,2.23,0,0,0-1.71.68A2.27,2.27,0,0,0,44,2.87V3.5h-.7V5H44V8.49"/><polyline id="Fill-4" class="cls-3" points="22.79 0.6 22.79 8.48 24.51 8.48 24.51 3.98 26.18 5.22 27.85 3.98 27.85 8.48 29.56 8.49 29.57 0.6 26.18 3.17 22.79 0.6"/><path id="Fill-5" class="cls-3" d="M48.8,4.82A1.26,1.26,0,0,1,50,4a1.35,1.35,0,0,1,1.28.85ZM50.18,2.6a3,3,0,1,0,0,5.9h0a3.28,3.28,0,0,0,2.43-1.18l-1.29-.71a1.6,1.6,0,0,1-1.17.52,1.43,1.43,0,0,1-1.38-1h4.3v-.4A3,3,0,0,0,50.18,2.6Z"/><path id="Fill-6" class="cls-3" d="M55.27,4.82A1.27,1.27,0,0,1,56.5,4a1.36,1.36,0,0,1,1.28.85ZM56.65,2.6a3,3,0,1,0,0,5.9h0a3.28,3.28,0,0,0,2.43-1.18l-1.29-.71a1.61,1.61,0,0,1-1.18.52,1.41,1.41,0,0,1-1.37-1h4.3V5.74A3,3,0,0,0,56.65,2.6Z"/><path id="Fill-9" class="cls-1" d="M27.68,16.26a1.93,1.93,0,0,1-.73,1.6,3.12,3.12,0,0,1-2,.58,4.7,4.7,0,0,1-2.1-.45V16.52A8.67,8.67,0,0,0,24.1,17a3.48,3.48,0,0,0,1,.14,1.28,1.28,0,0,0,.79-.2.67.67,0,0,0,.28-.59A.65.65,0,0,0,26,16a1.3,1.3,0,0,0-.36-.33,9.8,9.8,0,0,0-1-.51,4.45,4.45,0,0,1-1-.62,2,2,0,0,1-.54-.69,1.89,1.89,0,0,1-.21-.92,2,2,0,0,1,.67-1.56,2.84,2.84,0,0,1,1.85-.56,4,4,0,0,1,1.11.14,8,8,0,0,1,1.1.38l-.51,1.24a7.07,7.07,0,0,0-1-.35,3.44,3.44,0,0,0-.77-.09,1,1,0,0,0-.69.21.68.68,0,0,0-.23.54.75.75,0,0,0,.09.37,1.27,1.27,0,0,0,.31.3,8.36,8.36,0,0,0,1,.52,4,4,0,0,1,1.43,1,2,2,0,0,1,.39,1.23"/><polyline id="Fill-10" class="cls-1" points="33.17 18.34 28.89 18.34 28.89 10.86 33.17 10.86 33.17 12.16 30.46 12.16 30.46 13.8 32.98 13.8 32.98 15.1 30.46 15.1 30.46 17.03 33.17 17.03 33.17 18.34"/><path id="Fill-11" class="cls-1" d="M37.6,12.08a1.61,1.61,0,0,0-1.38.67,3.17,3.17,0,0,0-.48,1.87c0,1.67.62,2.5,1.86,2.5a5.88,5.88,0,0,0,1.9-.39v1.33a5.33,5.33,0,0,1-2,.38,3.12,3.12,0,0,1-2.49-1,4.21,4.21,0,0,1-.86-2.84,4.68,4.68,0,0,1,.42-2,3.14,3.14,0,0,1,1.22-1.35,3.58,3.58,0,0,1,1.85-.46,5,5,0,0,1,2.18.52l-.51,1.29c-.28-.13-.56-.25-.84-.35a2.73,2.73,0,0,0-.83-.14"/><path id="Fill-12" class="cls-1" d="M46.91,10.86V15.7a2.84,2.84,0,0,1-.37,1.45,2.38,2.38,0,0,1-1.07,1,3.79,3.79,0,0,1-1.65.33,3.13,3.13,0,0,1-2.23-.74,2.61,2.61,0,0,1-.79-2V10.86h1.57v4.58a1.93,1.93,0,0,0,.35,1.27,1.81,1.81,0,0,0,2.27,0,2,2,0,0,0,.34-1.28V10.86h1.58"/><path id="Fill-13" class="cls-1" d="M50,14.18h.51a1.88,1.88,0,0,0,1.1-.25.89.89,0,0,0,.36-.79.82.82,0,0,0-.36-.75,2.22,2.22,0,0,0-1.13-.23H50Zm0,1.29v2.87H48.41V10.86h2.17a3.73,3.73,0,0,1,2.25.56,2,2,0,0,1,.72,1.68,2,2,0,0,1-.36,1.18,2.36,2.36,0,0,1-1,.8c1.12,1.68,1.85,2.77,2.19,3.26H52.61l-1.78-2.87Z"/><g id="Group-18"><path class="cls-3" d="M9.49,4.41,0,0V17.52l9.49,4.41L19,17.52V0ZM15.09,15l-5.6,2.6L3.89,15V6.11l5.6,2.6,5.6-2.6Z"/><g class="cls-4"><polyline id="Fill-14" class="cls-1" points="59.46 18.34 55.17 18.34 55.17 10.86 59.46 10.86 59.46 12.16 56.75 12.16 56.75 13.8 59.27 13.8 59.27 15.1 56.75 15.1 56.75 17.03 59.46 17.03 59.46 18.34"/></g><g class="cls-5"><polyline id="Fill-17" class="cls-3" points="15.09 15.03 15.09 6.11 9.49 8.71 9.49 4.41 18.98 0 18.98 17.52 9.49 21.93 9.49 17.63 15.09 15.03"/></g><g class="cls-5"><polyline id="Fill-17-2" data-name="Fill-17" class="cls-6" points="15.09 15.03 15.09 6.11 9.49 8.71 9.49 4.41 18.98 0 18.98 17.52 9.49 21.93 9.49 17.63 15.09 15.03"/></g></g></g></g></g></g></g></svg>