<svg xmlns="http://www.w3.org/2000/svg" viewBox="0 0 61.05 25.67"><defs><style>.cls-1{fill:#d2d4d6;}.cls-2{fill:#ffc10e;}.cls-3{fill:#fff;}</style></defs><title>Asset 4</title><g id="Layer_2" data-name="Layer 2"><g id="Слой_1" data-name="Слой 1"><path class="cls-1" d="M50.74,24.86H11.17a10.31,10.31,0,1,1,0-20.61H50.74a10.31,10.31,0,1,1,0,20.61M11.17,5.06a9.5,9.5,0,1,0,0,19H50.74a9.5,9.5,0,1,0,0-19Z"/><path class="cls-1" d="M23.9,20.7l.36-.56a2.21,2.21,0,0,0,1.28.42c.52,0,.84-.24.84-.65s-.41-.6-1.08-.84-1.19-.51-1.19-1.37.63-1.23,1.48-1.23a2.46,2.46,0,0,1,1.31.31l-.29.6a2.12,2.12,0,0,0-1-.25c-.47,0-.76.18-.76.55s.33.56.95.76,1.36.51,1.36,1.45-.58,1.33-1.6,1.33a2.64,2.64,0,0,1-1.65-.52m4.62.46h2.87v-.64H29.3V19.06h1.56v-.62H29.3V17.18h2v-.64H28.52Zm4-2.31c0,1.36.62,2.37,2,2.37a1.73,1.73,0,0,0,1.42-.66L35.42,20a1.28,1.28,0,0,1-1,.49q-1.11,0-1.11-1.62c0-1.14.35-1.76,1.11-1.76a1.14,1.14,0,0,1,.88.4L35.8,17a1.71,1.71,0,0,0-1.36-.55c-1.29,0-1.93,1-1.93,2.38m4.64.54c0,1.15.44,1.83,1.61,1.83s1.64-.68,1.64-1.83V16.54h-.8v3c0,.63-.16,1.05-.83,1.05s-.83-.42-.83-1.05v-3h-.79v2.85m7.11-.3a1.2,1.2,0,0,0,.87-1.2c0-1-.73-1.35-1.66-1.35H42v4.62h.79v-2h.73l.88,2h.86Zm-1.51-.49V17.18h.74c.53,0,.84.18.84.69s-.3.73-.89.73Zm3.81,2.56h2.86v-.64H47.34V19.06h1.55v-.62H47.34V17.18h2v-.64H46.56Zm4.18,0h1.2c1.45,0,2.19-.82,2.19-2.33a2,2,0,0,0-2.23-2.29H50.74Zm.79-.64V17.18H52c1.06,0,1.35.61,1.35,1.65,0,1.19-.37,1.69-1.45,1.69Z"/><path class="cls-2" d="M11.12,25.67A11.12,11.12,0,1,1,22.23,14.56,11.13,11.13,0,0,1,11.12,25.67M11.12,7a7.6,7.6,0,1,0,5.37,2.22A7.59,7.59,0,0,0,11.12,7m13-5.23h-.86v.86h.86Zm0-1.73h-.86V.87h.86ZM21.6,2.59h-.81v.84h.81Z"/><path class="cls-3" d="M46,8.79a2.79,2.79,0,1,0,2.79,2.78A2.79,2.79,0,0,0,46,8.79ZM46,13a1.43,1.43,0,1,1,1.43-1.43A1.43,1.43,0,0,1,46,13ZM33.23,8.79A2.79,2.79,0,1,0,36,11.57,2.79,2.79,0,0,0,33.23,8.79Zm0,4.21a1.43,1.43,0,1,1,1.43-1.43A1.43,1.43,0,0,1,33.23,13Zm9.8.08.19,1.08a3.54,3.54,0,0,1-1.2.2c-1,0-1.68-.47-1.68-1.72V10h-.86c-.82,0-1.51.77-1.51,1.94v2.33H36.4V8.92h.92l.44,1.14a1.83,1.83,0,0,1,1.63-1.14h1l.27-1.52h1.28V8.92H43V10H41.91v2.57c0,.46.1.62.58.62A2.74,2.74,0,0,0,43,13.08Zm11-2.34v3.52H52.45V10.79a.73.73,0,0,0-.8-.71,1.29,1.29,0,0,0-1,.52l-.08-.23.08.24v3.65H49.15V8.92h.93l.31.81a2.47,2.47,0,0,1,1.83-.94A1.79,1.79,0,0,1,54,10.74ZM28.48,7h1.45v7.28H28.34l-2.56-5v5H24.33V7h1.75l2.4,4.58ZM20,5.06h-.82V4.25H20Zm2.51-.81H21.6V3.43h.91Zm-4.14-.78h.81v.78h-.81ZM21.6,5.06h-.81V4.25h.81Zm1.63-3.33h-.86V.87h.86Zm-.86.86H20.79V1.73h1.58ZM20,2.59h.79V4.25H20Zm.79,2.47V6.78h-.7v.68h-.73v1h-.64v.82h-.8V8.44h-.83v.83h.83v.91H17.1v.94h-.68v.82h-.64v.9a27.13,27.13,0,0,0-2.95,5.77c-.33.89-2,.76-2.35-.12a18.53,18.53,0,0,0-3.72-6.28c-1-1-.27-1.69.33-1.51,1.12.37,2.53,1.37,4.36,3.91a45.68,45.68,0,0,1,2.84-5.35h.6V8.45h.54V7.64h.81V6.37h.86v.81h.81V6.37H17.1V5.65h.73V5.06h1.35v.82H20V5.06Z"/></g></g></svg>