<svg xmlns="http://www.w3.org/2000/svg" width="24" height="24.031" viewBox="0 0 24 24.031">
  <defs>
    <style>
      .cls-1 {
        fill: #bbbdbe;
        fill-rule: evenodd;
      }
    </style>
  </defs>
  <path class="cls-1" d="M752.569,30.226a8.833,8.833,0,0,0,1.319-4.783c0-3.674-2.077-5.781-5.7-5.781s-5.7,2.107-5.7,5.781a8.833,8.833,0,0,0,1.319,4.783c-6.957,1.4-7.617,6.434-7.617,11.946a1.5,1.5,0,1,0,3,0c0-5.959.418-9.331,9-9.331s9,3.372,9,9.331a1.5,1.5,0,1,0,3,0C760.187,36.66,759.527,31.628,752.569,30.226Zm-7.08-4.783c0-2,.758-2.78,2.7-2.78s2.7,0.779,2.7,2.78c0,2.342-1.261,4.4-2.7,4.4S745.489,27.785,745.489,25.443Z" transform="translate(-736.188 -19.656)"/>
</svg>
